<svg width="545" height="151" viewBox="0 0 545 151" fill="none" xmlns="http://www.w3.org/2000/svg">
<mask id="mask0_84_2" style="mask-type:luminance" maskUnits="userSpaceOnUse" x="70" y="68" width="62" height="53">
<path d="M70.1873 68.5823H131.577V120.833H70.1873V68.5823Z" fill="white"/>
</mask>
<g mask="url(#mask0_84_2)">
<path d="M127.632 73.9116C128.933 83.5151 125.841 87.9365 120.51 89.1962L118.586 100.804L112.993 89.2944C95.9017 86.8117 70.2495 69.5844 70.2495 69.5844C76.9713 80.3699 109.15 102.329 114.068 120.428C141.786 93.2822 127.632 73.9116 127.632 73.9116Z" fill="#43BABF"/>
</g>
<mask id="mask1_84_2" style="mask-type:luminance" maskUnits="userSpaceOnUse" x="144" y="25" width="27" height="25">
<path d="M144.087 25.653H170.815V49.7353H144.087V25.653Z" fill="white"/>
</mask>
<g mask="url(#mask1_84_2)">
<path d="M157.953 26.6469L161.925 35.2483H170.815L164.377 41.0235L165.901 49.175L157.953 45.318L149.996 49.175L151.52 41.0235L145.091 35.2483H153.977L157.953 26.6469Z" fill="#F5CA29"/>
</g>
<path d="M129.231 3.35388L131.905 9.14951H137.903L133.567 13.0433L134.589 18.528L129.231 15.9349L123.877 18.528L124.89 13.0433L120.568 9.14951H126.552L129.231 3.35388Z" fill="#00223A"/>
<path d="M111.118 46.8682L112.877 50.676H116.805L113.961 53.22L114.637 56.8275L111.118 55.126L107.604 56.8275L108.284 53.22L105.436 50.676H109.368L111.118 46.8682Z" fill="black"/>
<mask id="mask2_84_2" style="mask-type:luminance" maskUnits="userSpaceOnUse" x="25" y="31" width="82" height="120">
<path d="M25.6758 31.9353H106.555V150.707H25.6758V31.9353Z" fill="white"/>
</mask>
<g mask="url(#mask2_84_2)">
<path fill-rule="evenodd" clip-rule="evenodd" d="M36.0629 83.3679C30.3718 114.097 51.559 143.345 83.9153 150.707C82.3425 150.568 80.7521 150.376 79.1571 150.118C44.1886 144.645 20.6556 114.076 26.6132 81.8832C32.5709 49.6862 65.7624 28.0129 100.731 33.4977C102.326 33.7553 103.894 34.058 105.436 34.4057C72.2576 31.4935 41.7495 52.6269 36.0629 83.3679Z" fill="#F5CA29"/>
</g>
<path fill-rule="evenodd" clip-rule="evenodd" d="M133.176 128.968C80.2945 156.695 28.0927 88.9059 74.0169 52.1403C72.5464 52.9215 71.0936 53.7599 69.6809 54.6884C46.5255 69.8053 41.0565 99.3438 57.4679 120.661C73.8881 141.979 105.973 147.005 129.129 131.897C130.541 130.972 131.897 129.995 133.176 128.968Z" fill="black"/>
<path fill-rule="evenodd" clip-rule="evenodd" d="M94.2268 17.3705L97.4211 24.4709C94.9021 24.2214 92.3875 24.1028 89.8818 24.1028C72.7241 24.1028 55.9929 29.7143 42.7669 39.8986C38.3686 43.277 34.459 47.0972 31.0693 51.2608L27.7283 43.8169L27.3107 42.8926L24.0676 42.684L13.5028 41.9846L5.97241 41.4897L5.67475 41.4733V62.0955C6.45222 62.5167 6.97646 63.2857 6.97646 64.165C6.97646 64.9135 6.59883 65.5925 6.00351 66.0219C5.90577 66.1037 5.7947 66.1773 5.67475 66.2346V68.4964L8.41146 73.5313H0.214661L2.89806 68.5864V66.3696C2.12503 65.9606 1.59634 65.1916 1.59634 64.3C1.59634 63.4697 2.05394 62.7376 2.76033 62.304C2.8092 62.2672 2.84919 62.2304 2.89806 62.2059C2.96025 62.1691 3.00912 62.1323 3.08021 62.0955V41.3097L48.0671 1.90595L98.6917 0.74437L110.141 0.478516L94.2268 17.3705Z" fill="#00223A"/>
<mask id="mask3_84_2" style="mask-type:luminance" maskUnits="userSpaceOnUse" x="0" y="0" width="112" height="74">
<path d="M0.214661 0H111.105V73.8176H0.214661V0Z" fill="white"/>
</mask>
<g mask="url(#mask3_84_2)">
</g>
<path d="M100.9 77.7195C100.895 77.7727 100.891 77.8259 100.891 77.879C100.891 82.3781 104.854 86.0224 109.741 86.0224C114.628 86.0224 118.586 82.3781 118.586 77.879C118.586 76.8933 118.4 75.9526 118.049 75.0773L100.9 77.7195Z" fill="#43BABF"/>
<mask id="mask4_84_2" style="mask-type:luminance" maskUnits="userSpaceOnUse" x="94" y="62" width="31" height="15">
<path d="M94.0446 62.7213H124.753V76.9588H94.0446V62.7213Z" fill="white"/>
</mask>
<g mask="url(#mask4_84_2)">
<path d="M123.331 73.3514C123.042 73.11 122.749 72.8565 122.478 72.5947C121.39 71.5517 120.563 70.2674 120.079 68.8891L120.034 68.7541C119.928 68.4514 119.812 68.1201 119.652 67.8052L121.278 66.7173L107.124 62.7172L95.1553 70.7378L100.393 72.2225L101.215 76.7502L117.667 74.2184L116.845 69.6866L118.839 68.3492C118.937 68.566 119.017 68.7991 119.097 69.0281L119.146 69.1672C119.675 70.6764 120.581 72.0752 121.767 73.2205C122.016 73.4618 122.278 73.6867 122.536 73.9076L122.305 75.151L124.371 75.4782L124.726 73.5763L123.331 73.3514Z" fill="#43BABF"/>
</g>
<path d="M190.08 105.784C193.451 105.784 196.181 106.765 198.272 108.728C200.363 110.691 201.408 113.272 201.408 116.472V138.232C201.408 138.445 201.323 138.637 201.152 138.808C201.024 138.936 200.853 139 200.64 139H194.752C194.539 139 194.347 138.936 194.176 138.808C194.048 138.637 193.984 138.445 193.984 138.232V137.016C193.984 136.888 193.941 136.803 193.856 136.76C193.771 136.717 193.685 136.76 193.6 136.888C192.107 138.637 189.931 139.512 187.072 139.512C184.64 139.512 182.485 138.829 180.608 137.464C178.773 136.056 177.856 133.517 177.856 129.848C177.856 126.008 178.965 123.277 181.184 121.656C183.445 120.035 186.496 119.224 190.336 119.224H193.664C193.877 119.224 193.984 119.117 193.984 118.904V117.24C193.984 115.704 193.6 114.488 192.832 113.592C192.064 112.653 191.104 112.184 189.952 112.184C189.056 112.184 188.309 112.483 187.712 113.08C187.115 113.635 186.752 114.403 186.624 115.384C186.581 115.896 186.304 116.152 185.792 116.152H179.584C179.072 116.152 178.837 115.896 178.88 115.384C179.093 112.483 180.224 110.157 182.272 108.408C184.363 106.659 186.965 105.784 190.08 105.784ZM189.12 133.368C190.4 133.368 191.531 132.963 192.512 132.152C193.493 131.341 193.984 130.211 193.984 128.76V125.112C193.984 124.899 193.877 124.792 193.664 124.792H190.336C188.885 124.792 187.712 125.197 186.816 126.008C185.92 126.776 185.472 127.907 185.472 129.4C185.472 130.723 185.813 131.725 186.496 132.408C187.179 133.048 188.053 133.368 189.12 133.368ZM221.99 139.512C218.491 139.512 215.718 138.573 213.67 136.696C211.665 134.819 210.662 132.28 210.662 129.08V116.152C210.662 113.037 211.665 110.541 213.67 108.664C215.718 106.744 218.491 105.784 221.99 105.784C225.489 105.784 228.262 106.723 230.31 108.6C232.358 110.435 233.382 112.781 233.382 115.64V116.536C233.382 116.749 233.297 116.941 233.126 117.112C232.998 117.24 232.827 117.304 232.614 117.304L226.726 117.56C226.214 117.56 225.958 117.304 225.958 116.792V116.152C225.958 115.085 225.574 114.168 224.806 113.4C224.081 112.589 223.142 112.184 221.99 112.184C220.838 112.184 219.899 112.611 219.174 113.464C218.449 114.317 218.086 115.405 218.086 116.728V128.568C218.086 129.891 218.449 130.979 219.174 131.832C219.899 132.685 220.838 133.112 221.99 133.112C223.142 133.112 224.081 132.728 224.806 131.96C225.574 131.149 225.958 130.189 225.958 129.08V128.44C225.958 128.227 226.022 128.056 226.15 127.928C226.321 127.757 226.513 127.672 226.726 127.672L232.614 127.736C232.827 127.736 232.998 127.821 233.126 127.992C233.297 128.12 233.382 128.291 233.382 128.504V129.656C233.382 132.6 232.358 134.989 230.31 136.824C228.262 138.616 225.489 139.512 221.99 139.512ZM256.67 105.784C259.443 105.784 261.534 106.723 262.942 108.6C264.393 110.435 265.118 113.059 265.118 116.472V138.232C265.118 138.445 265.033 138.637 264.862 138.808C264.734 138.936 264.563 139 264.35 139H258.462C258.249 139 258.057 138.936 257.886 138.808C257.758 138.637 257.694 138.445 257.694 138.232V117.048C257.694 115.512 257.374 114.317 256.734 113.464C256.094 112.611 255.177 112.184 253.982 112.184C252.745 112.184 251.785 112.632 251.102 113.528C250.419 114.424 250.078 115.661 250.078 117.24V138.232C250.078 138.445 249.993 138.637 249.822 138.808C249.694 138.936 249.523 139 249.31 139H243.422C243.209 139 243.017 138.936 242.846 138.808C242.718 138.637 242.654 138.445 242.654 138.232V94.968C242.654 94.7547 242.718 94.584 242.846 94.456C243.017 94.2853 243.209 94.2 243.422 94.2H249.31C249.523 94.2 249.694 94.2853 249.822 94.456C249.993 94.584 250.078 94.7547 250.078 94.968V108.344C250.078 108.472 250.121 108.557 250.206 108.6C250.334 108.6 250.462 108.515 250.59 108.344C252.041 106.637 254.067 105.784 256.67 105.784ZM279.163 101.816C277.84 101.816 276.752 101.389 275.899 100.536C275.046 99.6827 274.619 98.5947 274.619 97.272C274.619 95.9493 275.046 94.8613 275.899 94.008C276.752 93.1547 277.84 92.728 279.163 92.728C280.486 92.728 281.552 93.1547 282.363 94.008C283.216 94.8613 283.643 95.9493 283.643 97.272C283.643 98.5947 283.216 99.6827 282.363 100.536C281.51 101.389 280.443 101.816 279.163 101.816ZM276.283 139C276.07 139 275.878 138.936 275.707 138.808C275.579 138.637 275.515 138.445 275.515 138.232V107.064C275.515 106.851 275.579 106.68 275.707 106.552C275.878 106.381 276.07 106.296 276.283 106.296H282.171C282.384 106.296 282.555 106.381 282.683 106.552C282.854 106.68 282.939 106.851 282.939 107.064V138.232C282.939 138.445 282.854 138.637 282.683 138.808C282.555 138.936 282.384 139 282.171 139H276.283ZM315.633 124.6C315.633 124.813 315.548 125.005 315.377 125.176C315.249 125.304 315.078 125.368 314.865 125.368H300.721C300.508 125.368 300.401 125.475 300.401 125.688V128.568C300.401 129.891 300.764 130.979 301.489 131.832C302.214 132.685 303.153 133.112 304.305 133.112C305.286 133.112 306.118 132.813 306.801 132.216C307.526 131.576 307.996 130.765 308.209 129.784C308.337 129.357 308.614 129.144 309.041 129.144L314.737 129.4C314.95 129.4 315.121 129.485 315.249 129.656C315.42 129.784 315.484 129.976 315.441 130.232C315.142 133.219 314.054 135.523 312.177 137.144C310.3 138.723 307.676 139.512 304.305 139.512C300.806 139.512 298.033 138.595 295.985 136.76C293.98 134.883 292.977 132.344 292.977 129.144V116.152C292.977 113.037 293.98 110.541 295.985 108.664C298.033 106.744 300.806 105.784 304.305 105.784C307.804 105.784 310.556 106.744 312.561 108.664C314.609 110.541 315.633 113.037 315.633 116.152V124.6ZM304.305 112.184C303.153 112.184 302.214 112.611 301.489 113.464C300.764 114.317 300.401 115.405 300.401 116.728V119.608C300.401 119.821 300.508 119.928 300.721 119.928H307.953C308.166 119.928 308.273 119.821 308.273 119.608V116.728C308.273 115.363 307.91 114.275 307.185 113.464C306.46 112.611 305.5 112.184 304.305 112.184ZM331.507 139C331.038 139 330.739 138.787 330.611 138.36L322.803 107.064V106.808C322.803 106.424 323.038 106.232 323.507 106.232H330.035C330.547 106.232 330.825 106.467 330.867 106.936L334.707 126.84C334.75 126.968 334.814 127.032 334.899 127.032C334.985 127.032 335.049 126.968 335.091 126.84L338.867 106.936C338.91 106.467 339.187 106.232 339.699 106.232L346.227 106.36C346.825 106.36 347.059 106.637 346.931 107.192L339.187 138.36C339.059 138.787 338.761 139 338.291 139H331.507ZM376.906 124.6C376.906 124.813 376.82 125.005 376.65 125.176C376.522 125.304 376.351 125.368 376.138 125.368H361.994C361.78 125.368 361.674 125.475 361.674 125.688V128.568C361.674 129.891 362.036 130.979 362.762 131.832C363.487 132.685 364.426 133.112 365.578 133.112C366.559 133.112 367.391 132.813 368.074 132.216C368.799 131.576 369.268 130.765 369.482 129.784C369.61 129.357 369.887 129.144 370.314 129.144L376.01 129.4C376.223 129.4 376.394 129.485 376.522 129.656C376.692 129.784 376.756 129.976 376.714 130.232C376.415 133.219 375.327 135.523 373.45 137.144C371.572 138.723 368.948 139.512 365.578 139.512C362.079 139.512 359.306 138.595 357.258 136.76C355.252 134.883 354.25 132.344 354.25 129.144V116.152C354.25 113.037 355.252 110.541 357.258 108.664C359.306 106.744 362.079 105.784 365.578 105.784C369.076 105.784 371.828 106.744 373.834 108.664C375.882 110.541 376.906 113.037 376.906 116.152V124.6ZM365.578 112.184C364.426 112.184 363.487 112.611 362.762 113.464C362.036 114.317 361.674 115.405 361.674 116.728V119.608C361.674 119.821 361.78 119.928 361.994 119.928H369.226C369.439 119.928 369.546 119.821 369.546 119.608V116.728C369.546 115.363 369.183 114.275 368.458 113.464C367.732 112.611 366.772 112.184 365.578 112.184Z" fill="#00223A"/>
<path d="M405.18 94.968C405.18 94.7547 405.244 94.584 405.372 94.456C405.542 94.2853 405.734 94.2 405.948 94.2H411.772C411.985 94.2 412.156 94.2853 412.284 94.456C412.454 94.584 412.54 94.7547 412.54 94.968V138.232C412.54 138.445 412.454 138.637 412.284 138.808C412.156 138.936 411.985 139 411.772 139H405.052C404.625 139 404.348 138.787 404.22 138.36L394.684 111.224C394.641 111.096 394.556 111.053 394.428 111.096C394.342 111.096 394.3 111.16 394.3 111.288L394.364 138.232C394.364 138.445 394.278 138.637 394.108 138.808C393.98 138.936 393.809 139 393.596 139H387.772C387.558 139 387.366 138.936 387.196 138.808C387.068 138.637 387.004 138.445 387.004 138.232V94.968C387.004 94.7547 387.068 94.584 387.196 94.456C387.366 94.2853 387.558 94.2 387.772 94.2H394.364C394.79 94.2 395.068 94.4133 395.196 94.84L404.796 121.784C404.838 121.912 404.902 121.976 404.988 121.976C405.116 121.933 405.18 121.848 405.18 121.72V94.968ZM435.377 139.512C431.708 139.512 428.742 138.403 426.481 136.184C424.262 133.965 423.153 131.021 423.153 127.352V105.848C423.153 102.179 424.262 99.2347 426.481 97.016C428.742 94.7973 431.708 93.688 435.377 93.688C439.046 93.688 442.012 94.7973 444.273 97.016C446.534 99.2347 447.665 102.179 447.665 105.848V127.352C447.665 131.021 446.534 133.965 444.273 136.184C442.012 138.403 439.046 139.512 435.377 139.512ZM435.377 133.112C436.828 133.112 438.001 132.621 438.897 131.64C439.793 130.616 440.241 129.293 440.241 127.672V105.528C440.241 103.907 439.793 102.605 438.897 101.624C438.001 100.6 436.828 100.088 435.377 100.088C433.926 100.088 432.753 100.6 431.857 101.624C431.004 102.605 430.577 103.907 430.577 105.528V127.672C430.577 129.293 431.004 130.616 431.857 131.64C432.753 132.621 433.926 133.112 435.377 133.112ZM465.575 139C465.063 139 464.786 138.765 464.743 138.296L456.231 95.032L456.167 94.776C456.167 94.392 456.402 94.2 456.871 94.2H463.015C463.527 94.2 463.804 94.4347 463.847 94.904L468.327 121.592C468.37 121.72 468.434 121.784 468.519 121.784C468.604 121.784 468.668 121.72 468.711 121.592L472.743 94.904C472.786 94.4347 473.063 94.2 473.575 94.2H478.695C479.207 94.2 479.484 94.4347 479.527 94.904L483.879 121.592C483.922 121.72 483.986 121.784 484.071 121.784C484.156 121.784 484.22 121.72 484.263 121.592L488.295 94.904C488.338 94.4347 488.615 94.2 489.127 94.2H495.079C495.634 94.2 495.868 94.4773 495.783 95.032L487.655 138.296C487.612 138.765 487.335 139 486.823 139H481.383C480.871 139 480.594 138.765 480.551 138.296L476.263 111.096C476.22 110.925 476.156 110.84 476.071 110.84C475.986 110.84 475.922 110.925 475.879 111.096L471.911 138.296C471.868 138.765 471.591 139 471.079 139H465.575Z" fill="#43BABF"/>
</svg>
