<svg width="527" height="90" viewBox="0 0 527 90" fill="none" xmlns="http://www.w3.org/2000/svg">
<mask id="mask0_90_4" style="mask-type:luminance" maskUnits="userSpaceOnUse" x="46" y="40" width="42" height="33">
<path d="M46.7835 40.877H87.7027V72.0197H46.7835V40.877Z" fill="white"/>
</mask>
<g mask="url(#mask0_90_4)">
<path d="M85.0731 44.0534C85.9407 49.7774 83.8797 52.4126 80.3261 53.1635L79.0439 60.0819L75.3156 53.222C63.9235 51.7422 46.825 41.4742 46.825 41.4742C51.3054 47.9027 72.7541 60.9912 76.0322 71.7784C94.5078 55.5988 85.0731 44.0534 85.0731 44.0534Z" fill="white"/>
</g>
<mask id="mask1_90_4" style="mask-type:luminance" maskUnits="userSpaceOnUse" x="96" y="15" width="18" height="15">
<path d="M96.0417 15.2898H113.857V29.6435H96.0417V15.2898Z" fill="white"/>
</mask>
<g mask="url(#mask1_90_4)">
<path d="M105.284 15.8822L107.931 21.0089H113.857L109.566 24.451L110.582 29.3096L105.284 27.0107L99.9803 29.3096L100.996 24.451L96.711 21.0089H102.634L105.284 15.8822Z" fill="white"/>
</g>
<path d="M86.1392 1.99902L87.9219 5.45337H91.9196L89.0294 7.77415L89.7105 11.0432L86.1392 9.49767L82.5708 11.0432L83.246 7.77415L80.3646 5.45337H84.3535L86.1392 1.99902Z" fill="white"/>
<path d="M74.0659 27.9346L75.2386 30.2042H77.8564L75.9612 31.7205L76.4113 33.8706L74.0659 32.8565L71.7236 33.8706L72.1766 31.7205L70.2784 30.2042H72.8992L74.0659 27.9346Z" fill="white"/>
<mask id="mask2_90_4" style="mask-type:luminance" maskUnits="userSpaceOnUse" x="17" y="19" width="55" height="71">
<path d="M17.1143 19.0342H71.0247V89.8252H17.1143V19.0342Z" fill="white"/>
</mask>
<g mask="url(#mask2_90_4)">
<path fill-rule="evenodd" clip-rule="evenodd" d="M24.0379 49.6893C20.2445 68.0045 34.367 85.4371 55.9341 89.8251C54.8858 89.7422 53.8256 89.6277 52.7625 89.4741C29.4542 86.2123 13.7682 67.9923 17.7393 48.8044C21.7104 29.6141 43.8342 16.6963 67.1426 19.9653C68.2057 20.1189 69.251 20.2993 70.2786 20.5065C48.1636 18.7708 27.8284 31.3669 24.0379 49.6893Z" fill="white"/>
</g>
<path fill-rule="evenodd" clip-rule="evenodd" d="M88.7688 76.8684C53.5205 93.3941 18.7252 52.9902 49.3361 31.0769C48.356 31.5425 47.3876 32.0423 46.4459 32.5956C31.0116 41.6057 27.3663 59.2114 38.3053 71.9172C49.2503 84.623 70.6368 87.619 86.071 78.6138C87.0127 78.0629 87.9159 77.4803 88.7688 76.8684Z" fill="white"/>
<path fill-rule="evenodd" clip-rule="evenodd" d="M62.8071 10.3534L64.9362 14.5854C63.2572 14.4367 61.5811 14.366 59.9109 14.366C48.4744 14.366 37.3222 17.7106 28.5064 23.7807C25.5747 25.7943 22.9687 28.0712 20.7093 30.5529L18.4824 26.1161L18.204 25.5652L16.0423 25.4408L9.00031 25.024L3.98091 24.729L3.7825 24.7193V37.0106C4.30073 37.2617 4.65016 37.72 4.65016 38.2441C4.65016 38.6902 4.39845 39.0949 4.00164 39.3509C3.93649 39.3996 3.86246 39.4435 3.7825 39.4776V40.8257L5.60666 43.8267H0.143066L1.93169 40.8794V39.5581C1.41642 39.3143 1.06403 38.856 1.06403 38.3246C1.06403 37.8297 1.36904 37.3933 1.83989 37.1349C1.87246 37.113 1.89912 37.0911 1.93169 37.0764C1.97315 37.0545 2.00572 37.0325 2.0531 37.0106V24.6217L32.0392 1.13607L65.7832 0.443735L73.4144 0.285278L62.8071 10.3534Z" fill="white"/>
<mask id="mask3_90_4" style="mask-type:luminance" maskUnits="userSpaceOnUse" x="0" y="0" width="75" height="44">
<path d="M0.143066 0H74.057V43.9972H0.143066V0Z" fill="white"/>
</mask>
<g mask="url(#mask3_90_4)">
</g>
<path d="M67.2549 46.3229C67.252 46.3546 67.249 46.3862 67.249 46.4179C67.249 49.0995 69.8905 51.2716 73.1479 51.2716C76.4054 51.2716 79.0439 49.0995 79.0439 46.4179C79.0439 45.8304 78.9195 45.2697 78.6856 44.748L67.2549 46.3229Z" fill="white"/>
<mask id="mask4_90_4" style="mask-type:luminance" maskUnits="userSpaceOnUse" x="62" y="37" width="22" height="9">
<path d="M62.6857 37.3835H83.1542V45.8695H62.6857V37.3835Z" fill="white"/>
</mask>
<g mask="url(#mask4_90_4)">
<path d="M82.2066 43.7196C82.0141 43.5758 81.8186 43.4246 81.638 43.2686C80.9125 42.647 80.3617 41.8815 80.0389 41.06L80.0093 40.9795C79.9382 40.7991 79.8612 40.6017 79.7546 40.414L80.8385 39.7655L71.4038 37.3813L63.426 42.1619L66.9174 43.0468L67.4652 45.7454L78.4309 44.2364L77.8831 41.5353L79.2127 40.7382C79.2779 40.8674 79.3312 41.0063 79.3845 41.1429L79.417 41.2257C79.7694 42.1253 80.3735 42.959 81.1642 43.6416C81.33 43.7854 81.5047 43.9195 81.6765 44.0511L81.5225 44.7922L82.8995 44.9873L83.1364 43.8537L82.2066 43.7196Z" fill="white"/>
</g>
<path d="M172.08 41.784C175.451 41.784 178.181 42.7653 180.272 44.728C182.363 46.6907 183.408 49.272 183.408 52.472V74.232C183.408 74.4453 183.323 74.6373 183.152 74.808C183.024 74.936 182.853 75 182.64 75H176.752C176.539 75 176.347 74.936 176.176 74.808C176.048 74.6373 175.984 74.4453 175.984 74.232V73.016C175.984 72.888 175.941 72.8027 175.856 72.76C175.771 72.7173 175.685 72.76 175.6 72.888C174.107 74.6373 171.931 75.512 169.072 75.512C166.64 75.512 164.485 74.8293 162.608 73.464C160.773 72.056 159.856 69.5173 159.856 65.848C159.856 62.008 160.965 59.2773 163.184 57.656C165.445 56.0347 168.496 55.224 172.336 55.224H175.664C175.877 55.224 175.984 55.1173 175.984 54.904V53.24C175.984 51.704 175.6 50.488 174.832 49.592C174.064 48.6533 173.104 48.184 171.952 48.184C171.056 48.184 170.309 48.4827 169.712 49.08C169.115 49.6347 168.752 50.4027 168.624 51.384C168.581 51.896 168.304 52.152 167.792 52.152H161.584C161.072 52.152 160.837 51.896 160.88 51.384C161.093 48.4827 162.224 46.1573 164.272 44.408C166.363 42.6587 168.965 41.784 172.08 41.784ZM171.12 69.368C172.4 69.368 173.531 68.9627 174.512 68.152C175.493 67.3413 175.984 66.2107 175.984 64.76V61.112C175.984 60.8987 175.877 60.792 175.664 60.792H172.336C170.885 60.792 169.712 61.1973 168.816 62.008C167.92 62.776 167.472 63.9067 167.472 65.4C167.472 66.7227 167.813 67.7253 168.496 68.408C169.179 69.048 170.053 69.368 171.12 69.368ZM203.99 75.512C200.491 75.512 197.718 74.5733 195.67 72.696C193.665 70.8187 192.662 68.28 192.662 65.08V52.152C192.662 49.0373 193.665 46.5413 195.67 44.664C197.718 42.744 200.491 41.784 203.99 41.784C207.489 41.784 210.262 42.7227 212.31 44.6C214.358 46.4347 215.382 48.7813 215.382 51.64V52.536C215.382 52.7493 215.297 52.9413 215.126 53.112C214.998 53.24 214.827 53.304 214.614 53.304L208.726 53.56C208.214 53.56 207.958 53.304 207.958 52.792V52.152C207.958 51.0853 207.574 50.168 206.806 49.4C206.081 48.5893 205.142 48.184 203.99 48.184C202.838 48.184 201.899 48.6107 201.174 49.464C200.449 50.3173 200.086 51.4053 200.086 52.728V64.568C200.086 65.8907 200.449 66.9787 201.174 67.832C201.899 68.6853 202.838 69.112 203.99 69.112C205.142 69.112 206.081 68.728 206.806 67.96C207.574 67.1493 207.958 66.1893 207.958 65.08V64.44C207.958 64.2267 208.022 64.056 208.15 63.928C208.321 63.7573 208.513 63.672 208.726 63.672L214.614 63.736C214.827 63.736 214.998 63.8213 215.126 63.992C215.297 64.12 215.382 64.2907 215.382 64.504V65.656C215.382 68.6 214.358 70.9893 212.31 72.824C210.262 74.616 207.489 75.512 203.99 75.512ZM238.67 41.784C241.443 41.784 243.534 42.7227 244.942 44.6C246.393 46.4347 247.118 49.0587 247.118 52.472V74.232C247.118 74.4453 247.033 74.6373 246.862 74.808C246.734 74.936 246.563 75 246.35 75H240.462C240.249 75 240.057 74.936 239.886 74.808C239.758 74.6373 239.694 74.4453 239.694 74.232V53.048C239.694 51.512 239.374 50.3173 238.734 49.464C238.094 48.6107 237.177 48.184 235.982 48.184C234.745 48.184 233.785 48.632 233.102 49.528C232.419 50.424 232.078 51.6613 232.078 53.24V74.232C232.078 74.4453 231.993 74.6373 231.822 74.808C231.694 74.936 231.523 75 231.31 75H225.422C225.209 75 225.017 74.936 224.846 74.808C224.718 74.6373 224.654 74.4453 224.654 74.232V30.968C224.654 30.7547 224.718 30.584 224.846 30.456C225.017 30.2853 225.209 30.2 225.422 30.2H231.31C231.523 30.2 231.694 30.2853 231.822 30.456C231.993 30.584 232.078 30.7547 232.078 30.968V44.344C232.078 44.472 232.121 44.5573 232.206 44.6C232.334 44.6 232.462 44.5147 232.59 44.344C234.041 42.6373 236.067 41.784 238.67 41.784ZM261.163 37.816C259.84 37.816 258.752 37.3893 257.899 36.536C257.046 35.6827 256.619 34.5947 256.619 33.272C256.619 31.9493 257.046 30.8613 257.899 30.008C258.752 29.1547 259.84 28.728 261.163 28.728C262.486 28.728 263.552 29.1547 264.363 30.008C265.216 30.8613 265.643 31.9493 265.643 33.272C265.643 34.5947 265.216 35.6827 264.363 36.536C263.51 37.3893 262.443 37.816 261.163 37.816ZM258.283 75C258.07 75 257.878 74.936 257.707 74.808C257.579 74.6373 257.515 74.4453 257.515 74.232V43.064C257.515 42.8507 257.579 42.68 257.707 42.552C257.878 42.3813 258.07 42.296 258.283 42.296H264.171C264.384 42.296 264.555 42.3813 264.683 42.552C264.854 42.68 264.939 42.8507 264.939 43.064V74.232C264.939 74.4453 264.854 74.6373 264.683 74.808C264.555 74.936 264.384 75 264.171 75H258.283ZM297.633 60.6C297.633 60.8133 297.548 61.0053 297.377 61.176C297.249 61.304 297.078 61.368 296.865 61.368H282.721C282.508 61.368 282.401 61.4747 282.401 61.688V64.568C282.401 65.8907 282.764 66.9787 283.489 67.832C284.214 68.6853 285.153 69.112 286.305 69.112C287.286 69.112 288.118 68.8133 288.801 68.216C289.526 67.576 289.996 66.7653 290.209 65.784C290.337 65.3573 290.614 65.144 291.041 65.144L296.737 65.4C296.95 65.4 297.121 65.4853 297.249 65.656C297.42 65.784 297.484 65.976 297.441 66.232C297.142 69.2187 296.054 71.5227 294.177 73.144C292.3 74.7227 289.676 75.512 286.305 75.512C282.806 75.512 280.033 74.5947 277.985 72.76C275.98 70.8827 274.977 68.344 274.977 65.144V52.152C274.977 49.0373 275.98 46.5413 277.985 44.664C280.033 42.744 282.806 41.784 286.305 41.784C289.804 41.784 292.556 42.744 294.561 44.664C296.609 46.5413 297.633 49.0373 297.633 52.152V60.6ZM286.305 48.184C285.153 48.184 284.214 48.6107 283.489 49.464C282.764 50.3173 282.401 51.4053 282.401 52.728V55.608C282.401 55.8213 282.508 55.928 282.721 55.928H289.953C290.166 55.928 290.273 55.8213 290.273 55.608V52.728C290.273 51.3627 289.91 50.2747 289.185 49.464C288.46 48.6107 287.5 48.184 286.305 48.184ZM313.507 75C313.038 75 312.739 74.7867 312.611 74.36L304.803 43.064V42.808C304.803 42.424 305.038 42.232 305.507 42.232H312.035C312.547 42.232 312.825 42.4667 312.867 42.936L316.707 62.84C316.75 62.968 316.814 63.032 316.899 63.032C316.985 63.032 317.049 62.968 317.091 62.84L320.867 42.936C320.91 42.4667 321.187 42.232 321.699 42.232L328.227 42.36C328.825 42.36 329.059 42.6373 328.931 43.192L321.187 74.36C321.059 74.7867 320.761 75 320.291 75H313.507ZM358.906 60.6C358.906 60.8133 358.82 61.0053 358.65 61.176C358.522 61.304 358.351 61.368 358.138 61.368H343.994C343.78 61.368 343.674 61.4747 343.674 61.688V64.568C343.674 65.8907 344.036 66.9787 344.762 67.832C345.487 68.6853 346.426 69.112 347.578 69.112C348.559 69.112 349.391 68.8133 350.074 68.216C350.799 67.576 351.268 66.7653 351.482 65.784C351.61 65.3573 351.887 65.144 352.314 65.144L358.01 65.4C358.223 65.4 358.394 65.4853 358.522 65.656C358.692 65.784 358.756 65.976 358.714 66.232C358.415 69.2187 357.327 71.5227 355.45 73.144C353.572 74.7227 350.948 75.512 347.578 75.512C344.079 75.512 341.306 74.5947 339.258 72.76C337.252 70.8827 336.25 68.344 336.25 65.144V52.152C336.25 49.0373 337.252 46.5413 339.258 44.664C341.306 42.744 344.079 41.784 347.578 41.784C351.076 41.784 353.828 42.744 355.834 44.664C357.882 46.5413 358.906 49.0373 358.906 52.152V60.6ZM347.578 48.184C346.426 48.184 345.487 48.6107 344.762 49.464C344.036 50.3173 343.674 51.4053 343.674 52.728V55.608C343.674 55.8213 343.78 55.928 343.994 55.928H351.226C351.439 55.928 351.546 55.8213 351.546 55.608V52.728C351.546 51.3627 351.183 50.2747 350.458 49.464C349.732 48.6107 348.772 48.184 347.578 48.184ZM387.18 30.968C387.18 30.7547 387.244 30.584 387.372 30.456C387.542 30.2853 387.734 30.2 387.948 30.2H393.772C393.985 30.2 394.156 30.2853 394.284 30.456C394.454 30.584 394.54 30.7547 394.54 30.968V74.232C394.54 74.4453 394.454 74.6373 394.284 74.808C394.156 74.936 393.985 75 393.772 75H387.052C386.625 75 386.348 74.7867 386.22 74.36L376.684 47.224C376.641 47.096 376.556 47.0533 376.428 47.096C376.342 47.096 376.3 47.16 376.3 47.288L376.364 74.232C376.364 74.4453 376.278 74.6373 376.108 74.808C375.98 74.936 375.809 75 375.596 75H369.772C369.558 75 369.366 74.936 369.196 74.808C369.068 74.6373 369.004 74.4453 369.004 74.232V30.968C369.004 30.7547 369.068 30.584 369.196 30.456C369.366 30.2853 369.558 30.2 369.772 30.2H376.364C376.79 30.2 377.068 30.4133 377.196 30.84L386.796 57.784C386.838 57.912 386.902 57.976 386.988 57.976C387.116 57.9333 387.18 57.848 387.18 57.72V30.968ZM417.377 75.512C413.708 75.512 410.742 74.4027 408.481 72.184C406.262 69.9653 405.153 67.0213 405.153 63.352V41.848C405.153 38.1787 406.262 35.2347 408.481 33.016C410.742 30.7973 413.708 29.688 417.377 29.688C421.046 29.688 424.012 30.7973 426.273 33.016C428.534 35.2347 429.665 38.1787 429.665 41.848V63.352C429.665 67.0213 428.534 69.9653 426.273 72.184C424.012 74.4027 421.046 75.512 417.377 75.512ZM417.377 69.112C418.828 69.112 420.001 68.6213 420.897 67.64C421.793 66.616 422.241 65.2933 422.241 63.672V41.528C422.241 39.9067 421.793 38.6053 420.897 37.624C420.001 36.6 418.828 36.088 417.377 36.088C415.926 36.088 414.753 36.6 413.857 37.624C413.004 38.6053 412.577 39.9067 412.577 41.528V63.672C412.577 65.2933 413.004 66.616 413.857 67.64C414.753 68.6213 415.926 69.112 417.377 69.112ZM447.575 75C447.063 75 446.786 74.7653 446.743 74.296L438.231 31.032L438.167 30.776C438.167 30.392 438.402 30.2 438.871 30.2H445.015C445.527 30.2 445.804 30.4347 445.847 30.904L450.327 57.592C450.37 57.72 450.434 57.784 450.519 57.784C450.604 57.784 450.668 57.72 450.711 57.592L454.743 30.904C454.786 30.4347 455.063 30.2 455.575 30.2H460.695C461.207 30.2 461.484 30.4347 461.527 30.904L465.879 57.592C465.922 57.72 465.986 57.784 466.071 57.784C466.156 57.784 466.22 57.72 466.263 57.592L470.295 30.904C470.338 30.4347 470.615 30.2 471.127 30.2H477.079C477.634 30.2 477.868 30.4773 477.783 31.032L469.655 74.296C469.612 74.7653 469.335 75 468.823 75H463.383C462.871 75 462.594 74.7653 462.551 74.296L458.263 47.096C458.22 46.9253 458.156 46.84 458.071 46.84C457.986 46.84 457.922 46.9253 457.879 47.096L453.911 74.296C453.868 74.7653 453.591 75 453.079 75H447.575Z" fill="white"/>
</svg>
